<svg xmlns="http://www.w3.org/2000/svg" width="48" height="48" viewBox="0 0 30 30"><style>.a{fill:#FFF;}.b{fill:#CCC;}</style><title>e-mail</title><g style="fill:none;stroke-width:1;stroke:none"><rect width="30" height="30" class="a"/><rect x="0.5" y="0.5" width="29" height="29" class="a"/><path d="M29 1L29 29 1 29 1 1 29 1 29 1ZM30 0L0 0 0 30 30 30 30 0 30 0Z" class="b"/><path d="M28 28L2 28 2 2 28 2 28 28ZM2.5 27.5L27.5 27.5 27.5 2.5 2.5 2.5 2.5 27.5Z" class="b"/><g fill="#000"><path d="M23.4 10L7.5 10C7.2 10 7 10.3 7 10.5L7 19.5C7 19.7 7.2 20 7.5 20L23.4 20C23.7 20 23.9 19.7 23.9 19.5L23.9 10.5C23.9 10.3 23.7 10 23.4 10ZM9.2 11L21.7 11 15.5 15.1 9.2 11ZM8.1 11.5L13.7 15.1 8.1 18.3 8.1 11.5ZM14.6 15.7L15.2 16.1C15.3 16.1 15.4 16.2 15.5 16.2 15.6 16.2 15.7 16.1 15.8 16.1L16.3 15.7 22.1 19 8.9 19 14.6 15.7ZM17.3 15.1L22.9 11.5 22.9 18.3 17.3 15.1Z"/></g></g></svg>
