<svg xmlns="http://www.w3.org/2000/svg" width="48" height="48" viewBox="0 0 30 30"><style>.a{fill:#CCC;}</style><title>Snapchat Logo</title><g style="fill:none;stroke-width:1;stroke:none"><rect x="0.5" y="0.5" width="29" height="29" fill="#FFF"/><path d="M29 1L29 29 1 29 1 1 29 1 29 1ZM30 0L0 0 0 30 30 30 30 0 30 0Z" class="a"/><path d="M28 28L2 28 2 2 28 2 28 28 28 28ZM2.5 27.5L27.5 27.5 27.5 2.5 2.5 2.5 2.5 27.5Z" class="a"/><path d="M15.1 23.8C15.1 23.8 15 23.8 15 23.8L15 23.8C14.9 23.8 14.9 23.8 14.9 23.8 13.8 23.8 13.1 23.3 12.4 22.8 11.9 22.4 11.5 22.1 10.9 22 10.7 22 10.4 22 10.2 22 9.7 22 9.4 22 9.1 22.1 9 22.1 8.8 22.1 8.7 22.1 8.6 22.1 8.5 22.1 8.5 21.9 8.4 21.8 8.4 21.7 8.3 21.5 8.3 21.2 8.2 20.9 8.1 20.9 6.3 20.6 5.8 20.3 5.7 20 5.7 20 5.7 19.9 5.7 19.9 5.7 19.8 5.7 19.7 5.8 19.7 8.5 19.3 9.7 16.5 9.8 16.4 9.8 16.4 9.8 16.4 9.8 16.4 10 16 10 15.7 9.9 15.5 9.7 15.1 9.1 14.9 8.7 14.8 8.6 14.7 8.5 14.7 8.4 14.7 7.6 14.3 7.6 14 7.6 13.9 7.7 13.6 8 13.4 8.3 13.4 8.4 13.4 8.5 13.4 8.6 13.4 8.9 13.6 9.2 13.7 9.5 13.7 9.9 13.7 10.1 13.5 10.1 13.5 10.1 13.3 10.1 13.1 10.1 12.9 10 11.7 9.9 10.1 10.3 9.2 11.5 6.5 14.1 6.3 14.8 6.3 14.8 6.3 15.1 6.2 15.1 6.2L15.2 6.2C15.9 6.2 18.5 6.5 19.7 9.2 20.1 10.1 20 11.7 19.9 12.9L19.9 13C19.9 13.2 19.9 13.3 19.9 13.5 19.9 13.5 20.1 13.7 20.4 13.7L20.4 13.7C20.7 13.7 21 13.6 21.3 13.4 21.4 13.4 21.5 13.4 21.6 13.4 21.7 13.4 21.8 13.4 21.9 13.4L21.9 13.4C22.2 13.5 22.4 13.7 22.4 13.9 22.4 14.1 22.3 14.4 21.6 14.7 21.5 14.7 21.4 14.7 21.3 14.8 20.9 14.9 20.3 15.1 20.1 15.5 20 15.7 20 16 20.2 16.4 20.2 16.4 20.2 16.4 20.2 16.4 20.3 16.5 21.5 19.3 24.2 19.7 24.3 19.7 24.3 19.8 24.3 19.9 24.3 19.9 24.3 20 24.3 20 24.2 20.3 23.7 20.6 21.9 20.9 21.8 20.9 21.7 21.1 21.6 21.5 21.6 21.7 21.6 21.8 21.5 21.9 21.5 22.1 21.4 22.1 21.3 22.1L21.3 22.1C21.2 22.1 21 22.1 20.9 22.1 20.6 22 20.2 22 19.8 22 19.6 22 19.3 22 19.1 22 18.5 22.1 18.1 22.4 17.6 22.8 16.9 23.3 16.2 23.8 15.1 23.8Z" fill="#000"/></g></svg>
