<svg xmlns="http://www.w3.org/2000/svg" width="48" height="48" viewBox="0 0 30 30"><style>.a{fill:#FFF;}.b{fill:#CCC;}</style><title>Twitter Logo</title><g style="fill:none;stroke-width:1;stroke:none"><rect width="30" height="30" class="a"/><rect x="0.5" y="0.5" width="29" height="29" class="a"/><path d="M29 1L29 29 1 29 1 1 29 1 29 1ZM30 0L0 0 0 30 30 30 30 0 30 0Z" class="b"/><path d="M28 28L2 28 2 2 28 2 28 28 28 28ZM2.5 27.5L27.5 27.5 27.5 2.5 2.5 2.5 2.5 27.5Z" class="b"/><path d="M17.1 8.2C15.6 8.7 14.6 10.2 14.8 11.7L14.8 12.3 14.2 12.3C12 12 10 11 8.4 9.4L7.6 8.6 7.3 9.2C6.9 10.5 7.2 11.9 8.1 12.8 8.6 13.4 8.5 13.4 7.6 13.1 7.3 13 7.1 12.9 7.1 13 7 13.1 7.3 14.2 7.5 14.6 7.8 15.3 8.5 15.9 9.2 16.2L9.8 16.5 9.1 16.5C8.4 16.5 8.4 16.5 8.4 16.8 8.7 17.6 9.6 18.4 10.7 18.8L11.5 19.1 10.8 19.5C9.8 20 8.7 20.4 7.5 20.4 7 20.4 6.5 20.5 6.5 20.5 6.5 20.6 8 21.3 8.9 21.6 11.5 22.4 14.6 22 16.9 20.7 18.6 19.7 20.2 17.7 21 15.9 21.4 14.9 21.8 13 21.8 12.2 21.8 11.6 21.9 11.5 22.5 10.8 23 10.4 23.3 10 23.4 9.9 23.5 9.6 23.5 9.6 22.9 9.9 21.9 10.2 21.7 10.2 22.2 9.6 22.6 9.2 23 8.5 23 8.3 23 8.3 22.9 8.3 22.7 8.4 22.4 8.6 21.9 8.7 21.6 8.9L20.9 9.1 20.3 8.7C20 8.4 19.5 8.2 19.3 8.1 18.7 7.9 17.7 8 17.1 8.2Z" fill="#000"/></g></svg>
