<?xml version="1.0" standalone="no"?>
<!DOCTYPE svg PUBLIC "-//W3C//DTD SVG 20010904//EN"
 "http://www.w3.org/TR/2001/REC-SVG-20010904/DTD/svg10.dtd">
<svg version="1.0" xmlns="http://www.w3.org/2000/svg"
 width="700.000000pt" height="700.000000pt" viewBox="0 0 700.000000 700.000000"
 preserveAspectRatio="xMidYMid meet">
<metadata>
Created by potrace 1.11, written by Peter Selinger 2001-2013
</metadata>
<g transform="translate(0.000000,700.000000) scale(0.100000,-0.100000)"
fill="#000000" stroke="none">
<path d="M0 3500 l0 -3500 3500 0 3500 0 0 3500 0 3500 -3500 0 -3500 0 0
-3500z m3008 1098 l-3 -243 -120 -7 c-586 -33 -998 -285 -1110 -678 -26 -89
-26 -251 0 -340 86 -301 354 -528 740 -623 138 -35 222 -47 366 -55 l124 -7 3
-242 2 -243 -82 0 c-162 0 -449 42 -612 90 -248 71 -475 193 -648 346 -359
319 -501 783 -375 1229 81 284 294 554 577 732 272 170 667 278 1033 282 l107
1 -2 -242z m722 -1098 l0 -1340 -270 0 -270 0 0 1340 0 1340 270 0 270 0 0
-1340z"/>
</g>
</svg>
