<svg xmlns="http://www.w3.org/2000/svg" width="48" height="48" viewBox="0 0 30 30"><style>.a{fill:#CCC;}</style><title>Facebook</title><g style="fill:none;stroke-width:1;stroke:none"><rect x="0.5" y="0.5" width="29" height="29" fill="#FFF"/><path d="M29 1L29 29 1 29 1 1 29 1 29 1ZM30 0L0 0 0 30 30 30 30 0 30 0Z" class="a"/><path d="M28 28L2 28 2 2 28 2 28 28 28 28ZM2.5 27.5L27.5 27.5 27.5 2.5 2.5 2.5 2.5 27.5Z" class="a"/><path d="M13.9 24.1h3.4v-8.1h2.2l0.3-2.8h-2.5l0-1.4c0-0.7 0.1-1.1 1.1-1.1h1.4v-2.8h-2.2c-2.7 0-3.6 1.4-3.6 3.6V13.2h-1.7V16h1.7V24.1z" fill="#000"/></g></svg>
