<svg xmlns="http://www.w3.org/2000/svg" width="48" height="48" viewBox="0 0 30 30"><style>.a{fill:#CCC;}</style><title>Github Logo</title><g style="fill:none;stroke-width:1;stroke:none"><rect x="0.5" y="0.5" width="29" height="29" fill="#FFF"/><path d="M29 1L29 29 1 29 1 1 29 1 29 1ZM30 0L0 0 0 30 30 30 30 0 30 0Z" class="a"/><path d="M28 28L2 28 2 2 28 2 28 28ZM2.5 27.5L27.5 27.5 27.5 2.5 2.5 2.5 2.5 27.5Z" class="a"/><path d="M18.2 23.9L15.9 23.9 13.5 23.9C13.5 23.9 13.5 22.5 13.5 21.6 10.2 22.3 9.3 19.8 9.3 19.8 8.7 18.6 8.1 18 8.1 18 6.9 17.3 8.1 17.4 8.1 17.4 9.3 17.4 9.9 18.6 9.9 18.6 10.9 20.4 12.8 20.1 13.5 19.8 13.5 19.2 13.7 18.3 14.1 18 11.5 17.7 9.3 16.2 9.3 13.2 9.3 10.2 9.9 9.6 10.5 9 10.4 8.7 9.9 7.7 10.5 6.1 10.5 6.1 11.7 6.1 12.9 7.8 13.5 7.3 15.3 7.2 15.9 7.2 16.5 7.2 18.3 7.3 18.8 7.8 20 6.1 21.2 6.1 21.2 6.1 21.8 7.7 21.3 8.7 21.2 9 21.8 9.6 22.4 10.2 22.4 13.2 22.4 16.2 20.3 17.7 17.6 18 18 18.3 18.2 19.3 18.2 19.8L18.2 23.9 18.2 23.9Z" fill="#000"/></g></svg>
