<svg xmlns="http://www.w3.org/2000/svg" width="48" height="48" viewBox="0 0 30 30"><style>.a{fill:#FFF;}.b{fill:#CCC;}</style><title>LinkedIn Logo</title><g style="fill:none;stroke-width:1;stroke:none"><rect width="30" height="30" class="a"/><rect x="0.5" y="0.5" width="29" height="29" class="a"/><path d="M29 1L29 29 1 29 1 1 29 1 29 1ZM30 0L0 0 0 30 30 30 30 0 30 0Z" class="b"/><path d="M28 28L2 28 2 2 28 2 28 28ZM2.5 27.5L27.5 27.5 27.5 2.5 2.5 2.5 2.5 27.5Z" class="b"/><path d="M22.9 21.5L22.9 15.7C22.9 12.6 21.2 11.1 19 11.1 17.2 11.1 16.4 12.1 15.9 12.8L15.9 11.4 12.6 11.4C12.6 12.3 12.6 21.5 12.6 21.5L15.9 21.5 15.9 15.9C15.9 15.6 16 15.2 16.1 15 16.3 14.4 16.9 13.8 17.8 13.8 19 13.8 19.5 14.7 19.5 16.1L19.5 21.5 22.9 21.5 22.9 21.5ZM9 10C10.2 10 10.9 9.2 10.9 8.2 10.9 7.2 10.2 6.5 9 6.5 7.9 6.5 7.1 7.2 7.1 8.2 7.1 9.2 7.9 10 9 10L9 10 9 10ZM10.7 21.5L10.7 11.4 7.3 11.4 7.3 21.5 10.7 21.5Z" fill="#000"/></g></svg>
