<svg width="44" height="44" viewBox="0 0 612 612" xmlns="http://www.w3.org/2000/svg"><g fill="none"><path d="M306 612c-28.152 0-55.284-3.672-81.396-11.016-26.112-7.347-50.49-17.646-73.134-30.906a305.087 305.087 0 0 1-61.812-47.736 305.032 305.032 0 0 1-47.736-61.812c-13.26-22.646-23.562-47.022-30.906-73.135C3.672 361.284 0 334.152 0 306c0-28.152 3.672-55.284 11.016-81.396 7.344-26.112 17.646-50.49 30.906-73.134a305.087 305.087 0 0 1 47.736-61.812 305.087 305.087 0 0 1 61.812-47.736c22.644-13.26 47.022-23.562 73.134-30.906C250.716 3.672 277.848 0 306 0c42.024 0 81.702 8.058 119.034 24.174 37.332 16.116 69.768 37.944 97.308 65.484 27.54 27.54 49.368 59.976 65.484 97.308C603.942 224.298 612 263.976 612 306c0 28.152-3.672 55.284-11.016 81.396-7.347 26.109-17.646 50.487-30.906 73.134a305.087 305.087 0 0 1-47.736 61.812 304.924 304.924 0 0 1-61.812 47.736c-22.646 13.26-47.022 23.562-73.136 30.906C361.284 608.328 334.152 612 306 612z" fill="#828282"/><path d="M482.65 391.948c-46.626-7.684-67.869-54.839-70.138-60.191-.043-.105-.222-.482-.27-.592-2.338-4.749-2.917-8.603-1.697-11.445 2.448-5.79 12.82-9.072 19.461-11.174 1.869-.604 3.62-1.159 5.014-1.714 13.43-5.303 20.17-12.08 20.028-20.158-.129-6.406-5.155-12.29-12.598-14.923-2.565-1.073-5.618-1.658-8.59-1.658-2.054 0-5.106.29-8.023 1.653-5.685 2.657-10.741 4.088-14.565 4.254-1.702-.068-2.99-.35-3.922-.666.117-2.016.253-4.089.383-6.204l.068-1.079c1.584-25.152 3.551-56.454-4.823-75.212C378.214 137.316 325.658 133 310.136 133l-7.24.068c-15.49 0-67.948 4.31-92.688 59.802-8.393 18.802-6.407 50.09-4.815 75.237.153 2.473.308 4.884.443 7.234-1.06.363-2.59.684-4.668.684-4.452 0-9.786-1.443-15.848-4.28-8.763-4.106-24.783 1.381-26.948 12.753-1.178 6.154 1.302 15.028 19.788 22.335 1.437.567 3.244 1.147 5.464 1.85 6.197 1.967 16.57 5.253 19.023 11.032 1.215 2.855.635 6.709-1.923 11.932-.913 2.127-22.872 52.119-71.371 60.104a9.946 9.946 0 0 0-8.337 10.372c.08 1.412.407 2.83 1.01 4.261 4.077 9.534 19.598 16.15 48.815 20.788.64 1.658 1.387 5.062 1.813 7.036.616 2.818 1.264 5.728 2.146 8.744.888 3.052 3.527 8.17 11.16 8.17 2.584 0 5.575-.586 8.825-1.214 4.674-.919 11.063-2.165 18.986-2.165 4.397 0 8.973.395 13.604 1.16 8.738 1.448 16.403 6.869 25.295 13.153 13.091 9.256 24.993 16.335 48.795 16.335.629 0 1.252-.019 1.862-.061.882.043 1.77.061 2.67.061 20.85 0 39.2-5.506 54.555-16.353 8.485-6.006 16.501-11.68 25.245-13.135 4.644-.764 9.225-1.159 13.622-1.159 7.597 0 13.658.974 19.066 2.035 3.657.721 6.519 1.067 9.158 1.067 5.328 0 9.25-2.93 10.748-8.041.864-2.972 1.511-5.796 2.14-8.682.333-1.536 1.134-5.211 1.813-6.981 28.797-4.582 43.504-10.94 47.574-20.448.611-1.37.969-2.819 1.067-4.36a9.976 9.976 0 0 0-8.336-10.386z" fill="#fdfdfd"/></g></svg>
